<?xml version="1.0" encoding="UTF-8" standalone="no"?>
<svg width="30px" height="29px" viewBox="0 0 30 29" version="1.1" xmlns="http://www.w3.org/2000/svg" xmlns:xlink="http://www.w3.org/1999/xlink">
    <!-- Generator: Sketch 41.2 (35397) - http://www.bohemiancoding.com/sketch -->
    <title>Admin</title>
    <desc>Created with Sketch.</desc>
    <defs></defs>
    <g id="Page-1" stroke="none" stroke-width="1" fill="none" fill-rule="evenodd">
        <g id="A.Course_create-new" transform="translate(-37.000000, -408.000000)" fill="#00BBE5">
            <g id="Navigation">
                <g id="Admin" transform="translate(37.000000, 408.000000)">
                    <path d="M22.6111957,19.7925 C21.6055435,19.7925 20.7867391,20.6009556 20.7867391,21.5953333 C20.7867391,22.5890667 21.6055435,23.3972 22.6111957,23.3972 C23.6165217,23.3972 24.4356522,22.5890667 24.4356522,21.5953333 C24.4356522,20.6009556 23.6165217,19.7925 22.6111957,19.7925 L22.6111957,19.7925 Z" id="Shape"></path>
                    <path d="M28.8779348,19.0278667 C28.8906522,18.9279778 28.8978261,18.8274444 28.8978261,18.7259444 C28.8978261,18.0776333 28.6425,17.4676667 28.1781522,17.0091444 L27.2494565,16.0921 C26.7293478,15.5752556 25.9532609,15.3155444 25.2101087,15.4048 C24.7601087,14.8296333 24.0554348,14.4584333 23.2643478,14.4584333 L21.9466304,14.4584333 C21.1578261,14.4584333 20.4551087,14.8277 20.0047826,15.4002889 C19.2723913,15.3097444 18.5057609,15.5659111 17.9820652,16.0737333 L16.5365217,14.8692667 L13.7641304,17.5936556 L10.9848913,14.8692667 L9.37173913,16.2135778 L6.01369565,17.7409111 C5.51706522,17.9429444 5.07619565,18.2909444 4.78076087,18.7813667 L0,26.6790333 L17.5379348,26.6790333 L17.9647826,27.1001778 C18.4852174,27.6150889 19.2603261,27.8741556 20.0015217,27.7849 C20.4515217,28.3600667 21.1561957,28.7312667 21.9469565,28.7312667 L23.2646739,28.7312667 C24.0534783,28.7312667 24.7568478,28.362 25.2068478,27.7894111 C25.946413,27.8799556 26.7218478,27.6199222 27.2455435,27.1021111 L28.1778261,26.1812 C28.6421739,25.7226778 28.8975,25.1130333 28.8975,24.4637556 C28.8975,24.3622556 28.8909783,24.2614 28.878913,24.1618333 C29.4557609,23.7168444 29.8268478,23.0234222 29.8268478,22.2462222 L29.8268478,20.9441222 C29.8271739,20.1662778 29.4554348,19.4725333 28.8779348,19.0278667 L28.8779348,19.0278667 Z M27.8758696,22.2459 C27.8758696,22.5191444 27.6515217,22.7411556 27.3753261,22.7411556 L26.5786957,22.7411556 C26.4955435,23.0243889 26.381413,23.2976333 26.2372826,23.5567 L26.8004348,24.1131778 C26.996087,24.3065111 26.996087,24.6203556 26.8004348,24.8136889 L25.8681522,25.7336333 C25.6796739,25.9205222 25.3496739,25.9205222 25.1605435,25.7336333 L24.5967391,25.1771556 C24.3348913,25.3192556 24.0580435,25.4326778 23.771413,25.5151667 L23.771413,26.3020333 C23.771413,26.5756 23.5470652,26.7969667 23.2702174,26.7969667 L21.9521739,26.7969667 C21.6759783,26.7969667 21.4516304,26.5752778 21.4516304,26.3020333 L21.4516304,25.5151667 C21.165,25.4326778 20.8878261,25.3202222 20.6259783,25.1771556 L20.0625,25.7336333 C19.8805435,25.9144 19.5365217,25.9137556 19.3548913,25.7336333 L18.4229348,24.8136889 C18.3283696,24.7199222 18.2765217,24.5958667 18.2765217,24.4631111 C18.2765217,24.3329333 18.33,24.2050111 18.4232609,24.1131778 L18.986087,23.5567 C18.8426087,23.2969889 18.7275,23.0243889 18.6443478,22.7411556 L17.8477174,22.7411556 C17.5711957,22.7411556 17.3471739,22.5191444 17.3471739,22.2459 L17.3471739,20.9438 C17.3471739,20.6705556 17.5715217,20.4491889 17.8477174,20.4491889 L18.6443478,20.4491889 C18.7275,20.1659556 18.8416304,19.8920667 18.986087,19.633 L18.4229348,19.0765222 C18.2269565,18.8831889 18.2269565,18.5699889 18.4229348,18.3766556 L19.3548913,17.4560667 C19.5433696,17.2691778 19.8733696,17.2691778 20.0625,17.4560667 L20.6259783,18.0125444 C20.8881522,17.8704444 21.165,17.7570222 21.4516304,17.6745333 L21.4516304,16.8876667 C21.4516304,16.6144222 21.6759783,16.3927333 21.9521739,16.3927333 L23.2698913,16.3927333 C23.5467391,16.3927333 23.771087,16.6144222 23.771087,16.8876667 L23.771087,17.6742111 C24.0577174,17.7567 24.3348913,17.8694778 24.596413,18.0122222 L25.1602174,17.4557444 C25.3425,17.2756222 25.6868478,17.2756222 25.8678261,17.4557444 L26.8001087,18.3763333 C26.8943478,18.4694556 26.9461957,18.5941556 26.9461957,18.7262667 C26.9461957,18.8564444 26.8927174,18.9846889 26.7994565,19.0762 L26.2369565,19.633 C26.3801087,19.8927111 26.4952174,20.1656333 26.5783696,20.4488667 L27.375,20.4488667 C27.6515217,20.4488667 27.8755435,20.6705556 27.8755435,20.9434778 L27.8755435,22.2459 L27.8758696,22.2459 Z" id="Shape"></path>
                    <path d="M13.7426087,15.1985778 L13.7426087,15.1995444 C13.7455435,15.1995444 13.7491304,15.1989 13.7520652,15.1989 C13.7536957,15.1989 13.7563043,15.1995444 13.758587,15.1995444 L13.7608696,15.1995444 L13.7628261,15.1995444 C13.7654348,15.1995444 13.7680435,15.1989 13.7696739,15.1989 C13.7729348,15.1989 13.7761957,15.1995444 13.7791304,15.1995444 L13.7791304,15.1985778 C17.6938043,15.2578667 20.073587,11.8719556 20.1345652,6.29042222 C20.1740217,2.41795556 17.7440217,0.203966667 13.7859783,0.0995666667 L13.7859783,0.0982777778 C13.7797826,0.0982777778 13.7755435,0.0986 13.7693478,0.0986 L13.7693478,0.0982777778 C13.7657609,0.0982777778 13.7631522,0.0982777778 13.7608696,0.0986 C13.7582609,0.0982777778 13.755,0.0982777778 13.7520652,0.0982777778 L13.7520652,0.0986 C13.7458696,0.0986 13.7413043,0.0982777778 13.736087,0.0982777778 L13.736087,0.0995666667 C9.77804348,0.203966667 7.3473913,2.41795556 7.38684783,6.2901 C7.44847826,11.8716333 9.82793478,15.2572222 13.7426087,15.1985778 L13.7426087,15.1985778 Z" id="Shape"></path>
                </g>
            </g>
        </g>
    </g>
</svg>