<?xml version="1.0" encoding="UTF-8" standalone="no"?>
<svg width="29px" height="29px" viewBox="0 0 29 29" version="1.1" xmlns="http://www.w3.org/2000/svg" xmlns:xlink="http://www.w3.org/1999/xlink">
    <!-- Generator: Sketch 41.2 (35397) - http://www.bohemiancoding.com/sketch -->
    <title>Apply form</title>
    <desc>Created with Sketch.</desc>
    <defs></defs>
    <g id="Page-1" stroke="none" stroke-width="1" fill="none" fill-rule="evenodd">
        <g id="A.Course_create-new" transform="translate(-38.000000, -577.000000)" fill="#FFFFFF">
            <g id="Navigation">
                <g id="Apply-form" transform="translate(38.000000, 577.000000)">
                    <path d="M28.3364674,13.0475319 L26.0914891,10.8500106 C25.7784783,10.5430426 25.3535652,10.3708936 24.911,10.3708936 C24.4678043,10.3708936 24.0428913,10.5433511 23.7301957,10.8500106 L23.1092174,11.4580851 L23.1092174,0 L0.0431847826,0 L0.0431847826,28.8716596 L23.1092174,28.8716596 L23.1092174,20.5566809 L28.3364674,15.3582766 C28.9889674,14.7205851 28.9889674,13.6855319 28.3364674,13.0475319 L28.3364674,13.0475319 Z M20.6041848,26.4205426 L2.54758696,26.4205426 L2.54758696,2.45142553 L20.6045,2.45142553 L20.6045,13.962883 L18.4115326,16.110117 L18.4115326,14.4358298 L4.94922826,14.4358298 L4.94922826,16.1212234 L18.3995543,16.1212234 L14.4290761,20.0084574 C14.2330109,20.2006596 14.0886413,20.4382128 14.0095217,20.6976702 L13.0540978,23.8413936 C12.8794674,24.4164574 13.0408587,25.0387234 13.4742826,25.4629255 C13.7913913,25.7742128 14.2178804,25.941734 14.6547717,25.941734 C14.8136413,25.941734 14.9737717,25.9195213 15.13075,25.8735532 L18.3431304,24.938766 C18.6091739,24.8613298 18.8509457,24.7203404 19.0476413,24.5281383 L20.6038696,23.0059468 L20.6038696,26.4205426 L20.6041848,26.4205426 Z M17.7955978,23.4221277 L14.5832174,24.3572234 L15.5386413,21.2131915 L22.746087,14.1563191 L25.0068261,16.3686489 L17.7955978,23.4221277 L17.7955978,23.4221277 Z M25.7438043,15.5637447 L23.4991413,13.3662234 L24.8388152,12.0544362 L27.0841087,14.2516489 L25.7438043,15.5637447 L25.7438043,15.5637447 Z" id="Shape"></path>
                    <rect id="Rectangle-path" x="4.94922826" y="5.42207447" width="13.4623043" height="1.68508511"></rect>
                    <rect id="Rectangle-path" x="4.94922826" y="9.86524468" width="13.4623043" height="1.68570213"></rect>
                </g>
            </g>
        </g>
    </g>
</svg>