<?xml version="1.0" encoding="UTF-8" standalone="no"?>
<svg width="28px" height="24px" viewBox="0 0 28 24" version="1.1" xmlns="http://www.w3.org/2000/svg" xmlns:xlink="http://www.w3.org/1999/xlink">
    <!-- Generator: Sketch 41.2 (35397) - http://www.bohemiancoding.com/sketch -->
    <title>Dashboard</title>
    <desc>Created with Sketch.</desc>
    <defs></defs>
    <g id="Page-1" stroke="none" stroke-width="1" fill="none" fill-rule="evenodd">
        <g id="A.Course_create-new" transform="translate(-38.000000, -164.000000)" fill="#FFFFFF">
            <g id="Navigation">
                <g id="Dashboard" transform="translate(38.000000, 164.000000)">
                    <path d="M26.5413531,0 L0.940985389,0 C0.659334516,0 0.409242113,0.129616497 0.236518866,0.329556838 L0.236518866,0.329901563 C0.0909426918,0.497093055 0,0.714959082 0,0.95695584 L0,22.3733242 C0,22.9000636 0.421797634,23.3285564 0.940985389,23.3285564 L26.5413531,23.3285564 C27.0602015,23.3285564 27.4819992,22.9000636 27.4819992,22.3733242 L27.4819992,0.95695584 C27.4826779,0.429182284 27.0605409,0 26.5413531,0 L26.5413531,0 Z M8.57983216,21.0812959 L2.19653748,21.0812959 L2.19653748,17.4954693 L8.57983216,17.4954693 L8.57983216,21.0812959 L8.57983216,21.0812959 Z M8.57983216,15.2964703 L2.19653748,15.2964703 L2.19653748,11.5269054 L8.57983216,11.5269054 L8.57983216,15.2964703 L8.57983216,15.2964703 Z M8.57983216,9.32790636 L2.19653748,9.32790636 L2.19653748,5.78344673 L8.57983216,5.78344673 L8.57983216,9.32790636 L8.57983216,9.32790636 Z M16.9214488,21.0812959 L10.7444718,21.0812959 L10.7444718,17.4954693 L16.9211094,17.4954693 L16.9211094,21.0812959 L16.9214488,21.0812959 Z M16.9214488,15.2964703 L10.7444718,15.2964703 L10.7444718,11.5269054 L16.9211094,11.5269054 L16.9211094,15.2964703 L16.9214488,15.2964703 Z M16.9214488,9.32790636 L10.7444718,9.32790636 L10.7444718,5.78344673 L16.9211094,5.78344673 L16.9211094,9.32790636 L16.9214488,9.32790636 Z M25.3557048,21.0812959 L19.0857491,21.0812959 L19.0857491,17.4954693 L25.3557048,17.4954693 L25.3557048,21.0812959 L25.3557048,21.0812959 Z M25.3557048,15.2964703 L19.0857491,15.2964703 L19.0857491,11.5269054 L25.3557048,11.5269054 L25.3557048,15.2964703 L25.3557048,15.2964703 Z M25.3557048,9.32790636 L19.0857491,9.32790636 L19.0857491,5.78344673 L25.3557048,5.78344673 L25.3557048,9.32790636 L25.3557048,9.32790636 Z" id="Shape"></path>
                </g>
            </g>
        </g>
    </g>
</svg>