<?xml version="1.0" encoding="UTF-8" standalone="no"?>
<svg width="28px" height="29px" viewBox="0 0 28 29" version="1.1" xmlns="http://www.w3.org/2000/svg" xmlns:xlink="http://www.w3.org/1999/xlink">
    <!-- Generator: Sketch 41.2 (35397) - http://www.bohemiancoding.com/sketch -->
    <title>Information</title>
    <desc>Created with Sketch.</desc>
    <defs></defs>
    <g id="Page-1" stroke="none" stroke-width="1" fill="none" fill-rule="evenodd">
        <g id="A.Course_create-new" transform="translate(-36.000000, -663.000000)" fill="#FFFFFF">
            <g id="Navigation">
                <g id="Information" transform="translate(36.000000, 663.000000)">
                    <path d="M24.6833846,5.30360638 L24.6833846,0 L3.15876923,0 L3.15876923,15.9117447 L0.235076923,15.9117447 L0.235076923,24.1421915 L3.15876923,24.1421915 L3.15876923,28.8975745 L24.6833846,28.8975745 L24.6833846,13.5340532 L27.9704615,13.5340532 L27.9704615,5.30360638 L24.6833846,5.30360638 L24.6833846,5.30360638 Z M7.172,3.23164894 L21.0350769,3.23164894 L21.0350769,4.69460638 L7.172,4.69460638 L7.172,3.23164894 L7.172,3.23164894 Z M7.172,7.07229787 L14.1033846,7.07229787 L14.1033846,8.53525532 L7.172,8.53525532 L7.172,7.07229787 L7.172,7.07229787 Z M7.172,13.7173085 L21.0350769,13.7173085 L21.0350769,15.180266 L7.172,15.180266 L7.172,13.7173085 L7.172,13.7173085 Z M1.46153846,22.6665851 L1.46153846,17.0643404 L12.4061538,17.0643404 L12.4061538,22.6662766 L1.46153846,22.6662766 L1.46153846,22.6665851 L1.46153846,22.6665851 Z M21.0347692,26.0925957 L7.172,26.0925957 L7.172,24.6296383 L21.0350769,24.6296383 L21.0347692,26.0925957 L21.0347692,26.0925957 L21.0347692,26.0925957 Z M21.1569231,18.5942447 L14.5901538,18.5942447 L14.5901538,17.1312872 L21.1569231,17.1312872 L21.1569231,18.5942447 L21.1569231,18.5942447 Z M26.6341538,12.1260106 L15.6895385,12.1260106 L15.6895385,6.52345745 L26.6341538,6.52345745 L26.6341538,12.1260106 L26.6341538,12.1260106 Z" id="Shape"></path>
                </g>
            </g>
        </g>
    </g>
</svg>