<?xml version="1.0" encoding="UTF-8" standalone="no"?>
<svg width="26px" height="29px" viewBox="0 0 26 29" version="1.1" xmlns="http://www.w3.org/2000/svg" xmlns:xlink="http://www.w3.org/1999/xlink">
    <!-- Generator: Sketch 41.2 (35397) - http://www.bohemiancoding.com/sketch -->
    <title>Report</title>
    <desc>Created with Sketch.</desc>
    <defs></defs>
    <g id="Page-1" stroke="none" stroke-width="1" fill="none" fill-rule="evenodd">
        <g id="A.Course_create-new" transform="translate(-39.000000, -494.000000)" fill="#00BBE5">
            <g id="Navigation">
                <g id="Report" transform="translate(39.000000, 494.000000)">
                    <polygon id="Shape" points="16.985119 0 16.0240476 2.73710638 21.7914048 6.70640426"></polygon>
                    <path d="M25.2235391,19.8049238 L21.3435001,16.7444849 L21.3435001,8.57792879 L13.8225149,3.40190316 L15.0170445,0 L0.173642857,0 L0.173642857,28.9250319 L21.3435001,28.9250319 L21.3435001,25.7890918 L25.2235391,22.7286528 C25.6717994,22.3750711 25.9330249,21.8366203 25.9330249,21.2667883 C25.9330249,20.6969563 25.6714877,20.1585055 25.2235391,19.8049238 L25.2235391,19.8049238 Z M16.5737983,26.7671894 L16.5737983,23.0188508 L9.04003243,23.0188508 L9.04003243,19.52094 L16.5734866,19.52094 L16.5734866,15.772912 L23.5439657,21.2698954 L16.5737983,26.7671894 L16.5737983,26.7671894 Z" id="Shape"></path>
                </g>
            </g>
        </g>
    </g>
</svg>