<?xml version="1.0" encoding="UTF-8" standalone="no"?>
<svg width="28px" height="28px" viewBox="0 0 28 28" version="1.1" xmlns="http://www.w3.org/2000/svg" xmlns:xlink="http://www.w3.org/1999/xlink">
    <!-- Generator: Sketch 41.2 (35397) - http://www.bohemiancoding.com/sketch -->
    <title>Teacher</title>
    <desc>Created with Sketch.</desc>
    <defs></defs>
    <g id="Page-1" stroke="none" stroke-width="1" fill="none" fill-rule="evenodd">
        <g id="A.Course_create-new" transform="translate(-38.000000, -326.000000)" fill="#00BBE5">
            <g id="Navigation">
                <g id="Teacher" transform="translate(38.000000, 326.000000)">
                    <path d="M23.6316989,20.860913 C23.3020215,20.3048696 22.8091613,19.915913 22.2542796,19.6961739 L18.4956559,17.9756957 L16.9562581,16.5653478 L13.9027527,19.383 L10.9181935,16.5403913 L9.17647312,18.0253043 L5.55032258,19.712 C5.01501075,19.9344783 4.5384086,20.3194783 4.21746237,20.860913 L0,27.9905652 L27.8494624,27.9905652 L23.6316989,20.860913 L23.6316989,20.860913 Z M13.8846882,27.6353913 L12.304043,22.2426522 L13.8846882,20.6448261 L15.4653333,22.2426522 L13.8846882,27.6353913 L13.8846882,27.6353913 Z" id="Shape"></path>
                    <path d="M6.91088172,7.4963913 C6.91088172,7.4963913 6.9123871,7.50856522 6.91509677,7.52682609 C6.92834409,7.65343478 6.94701075,7.7693913 6.96898925,7.87895652 C7.13096774,8.87082609 7.63948387,11.4851739 8.55565591,11.9456522 C8.28167742,11.1074783 8.16094624,10.1006957 8.58516129,9.07656522 C11.0286882,8.582 15.2148387,3.80921739 14.9285161,4.13395652 C14.9285161,4.13395652 17.1907957,7.3913913 18.9349247,8.53330435 C19.675871,9.74065217 19.5653763,10.9595652 19.2426237,11.9456522 C20.1145376,11.5076957 20.6164301,9.1203913 20.8030968,8.03508696 C20.8795699,7.728 20.9214194,7.33478261 20.9208172,6.83717391 C20.9129892,2.56413043 18.1804301,0.0636086957 13.6353978,0.164652174 C9.25776344,0.267217391 6.84193548,2.71447826 6.88649462,7.00547826 C6.88830108,7.18230435 6.89793548,7.34482609 6.91268817,7.497 L6.91088172,7.4963913 L6.91088172,7.4963913 Z" id="Shape"></path>
                </g>
            </g>
        </g>
    </g>
</svg>